<?xml version="1.0" standalone="no"?>
<!DOCTYPE svg PUBLIC "-//W3C//DTD SVG 20010904//EN"
 "http://www.w3.org/TR/2001/REC-SVG-20010904/DTD/svg10.dtd">
<svg version="1.0" xmlns="http://www.w3.org/2000/svg"
 width="500.000000pt" height="500.000000pt" viewBox="0 0 500.000000 500.000000"
 preserveAspectRatio="xMidYMid meet">

<g transform="translate(0.000000,500.000000) scale(0.100000,-0.100000)"
fill="#000000" stroke="none">
<path d="M2343 3743 c-40 -3 -53 -8 -53 -20 0 -12 -3 -13 -14 -4 -19 16 -66
17 -94 2 -16 -9 -22 -21 -22 -46 0 -39 20 -55 69 -55 16 0 32 -4 36 -9 9 -15
-28 -31 -46 -20 -18 11 -59 12 -59 1 0 -20 39 -42 73 -42 60 0 100 58 62 90
-8 6 -32 14 -55 17 -23 3 -40 11 -40 18 0 19 28 26 50 13 15 -10 22 -10 32 0
6 6 22 12 35 12 20 0 22 -5 25 -67 3 -62 5 -68 26 -71 21 -3 22 -1 20 70 -3
70 -2 73 20 76 15 2 22 9 20 20 -4 19 -11 20 -85 15z"/>
<path d="M2455 3668 c-20 -46 -39 -89 -42 -95 -7 -18 32 -16 47 2 7 8 28 15
47 15 21 0 36 -6 39 -15 5 -12 24 -15 84 -15 l78 0 7 42 7 42 47 -52 c45 -51
81 -66 97 -41 9 15 75 2 89 -17 6 -9 42 -20 82 -26 84 -13 105 -4 102 46 -1
17 2 39 6 49 13 32 -3 65 -37 75 -79 24 -74 27 -93 -62 l-18 -81 -24 85 c-14
47 -28 89 -33 94 -5 4 -30 -24 -56 -63 -26 -39 -49 -71 -52 -71 -3 0 -2 34 2
76 7 75 7 75 -16 72 -19 -2 -24 -11 -28 -46 l-5 -42 -43 50 c-24 27 -47 50
-53 50 -5 0 -9 -15 -9 -32 0 -60 -12 -108 -27 -108 -11 0 -12 11 -7 53 4 28
11 54 15 55 5 2 9 9 9 17 0 13 -66 28 -82 19 -11 -7 -10 -34 2 -34 6 0 10 -25
10 -55 0 -30 -4 -55 -10 -55 -5 0 -25 34 -44 75 -19 41 -39 75 -44 75 -5 0
-26 -37 -47 -82z m65 -35 c0 -7 -9 -13 -20 -13 -23 0 -24 4 -9 32 9 17 13 18
20 7 5 -8 9 -20 9 -26z m579 8 c18 -11 5 -31 -20 -31 -12 0 -19 7 -19 20 0 21
16 26 39 11z m-160 -43 c1 -5 -8 -8 -19 -8 -23 0 -24 4 -8 33 11 21 11 21 19
2 4 -11 8 -23 8 -27z m145 -24 c25 -9 19 -34 -7 -34 -29 0 -37 7 -30 26 6 15
13 17 37 8z"/>
<path d="M2102 3648 c3 -72 3 -73 -22 -73 -23 0 -26 6 -36 63 -6 34 -14 65
-16 68 -11 10 -38 -9 -34 -25 2 -9 8 -36 11 -60 7 -42 6 -44 -10 -28 -10 11
-32 17 -61 17 -31 0 -44 4 -44 14 0 19 24 27 60 19 24 -4 30 -2 30 11 0 20
-46 39 -76 32 -83 -21 -64 -116 23 -116 24 0 33 -5 33 -16 0 -13 -7 -15 -33
-11 -44 7 -66 -5 -48 -27 29 -35 131 -2 131 42 0 13 3 12 16 -6 18 -26 69 -30
102 -6 17 11 22 25 22 57 0 78 -11 117 -32 117 -17 0 -19 -7 -16 -72z"/>
<path d="M3167 3593 c-10 -38 -20 -78 -23 -89 -5 -19 1 -23 48 -34 29 -7 77
-21 107 -32 43 -14 56 -16 63 -6 10 17 10 28 -1 28 -28 0 -60 21 -55 35 5 12
15 14 40 9 27 -5 34 -3 34 10 0 9 -11 21 -25 26 -33 12 -35 45 -2 34 37 -12
51 -10 55 7 2 11 -10 19 -39 28 -22 7 -47 15 -53 17 -8 3 -19 -18 -31 -58 -10
-35 -20 -66 -22 -70 -3 -6 -61 6 -69 14 -1 2 6 33 16 70 19 69 18 78 -9 78
-12 0 -22 -19 -34 -67z"/>
<path d="M1687 3628 c-28 -8 -36 -14 -33 -27 49 -171 48 -169 74 -152 9 5 11
17 6 34 -8 34 10 36 42 6 17 -16 30 -20 50 -15 l27 7 -26 27 c-19 21 -24 34
-20 59 4 23 -1 37 -16 52 -23 23 -45 25 -104 9z m76 -41 c6 -17 -3 -32 -26
-40 -21 -8 -42 33 -23 45 18 12 43 9 49 -5z"/>
<path d="M1545 3579 c-39 -11 -69 -60 -61 -100 3 -18 2 -28 -4 -24 -5 3 -19 1
-31 -6 -17 -9 -23 -8 -30 2 -15 24 -10 37 16 43 16 4 25 13 25 26 0 11 -4 20
-9 20 -12 0 -101 -38 -101 -43 0 -12 70 -162 74 -159 3 1 13 2 22 2 9 0 14 6
11 13 -19 51 -18 56 7 63 14 3 26 11 26 17 0 6 10 1 23 -11 54 -51 157 -10
157 62 0 37 -34 96 -54 96 -8 0 -20 2 -28 4 -7 2 -27 0 -43 -5z m71 -64 c15
-23 15 -27 0 -50 -30 -46 -86 -25 -86 32 0 46 59 59 86 18z"/>
<path d="M3441 3488 c-25 -63 -29 -83 -19 -90 16 -10 28 -10 28 0 1 24 17 31
49 22 22 -6 40 -6 52 1 17 9 19 6 19 -30 0 -32 6 -44 31 -65 56 -47 127 -29
149 40 28 84 -67 158 -138 108 -21 -14 -22 -14 -22 10 0 13 -7 32 -16 41 -15
15 -78 45 -94 45 -4 0 -21 -37 -39 -82z m90 22 c23 -13 25 -33 5 -49 -11 -9
-20 -10 -35 -2 -18 10 -19 15 -9 36 13 29 13 29 39 15z m161 -77 c22 -20 23
-51 1 -75 -20 -22 -41 -23 -65 -1 -24 21 -23 48 2 73 24 24 38 25 62 3z"/>
<path d="M1204 3428 l-40 -20 38 -72 c38 -72 47 -99 27 -79 -9 9 -19 8 -42 -3
-24 -13 -31 -14 -38 -2 -5 8 1 20 19 35 20 16 24 24 16 33 -9 9 -17 9 -32 1
-28 -15 -42 -14 -42 4 0 8 4 15 8 15 20 0 43 27 36 43 -5 15 -11 14 -55 -11
-27 -15 -49 -30 -49 -34 0 -5 -5 -8 -12 -8 -6 0 -33 -14 -60 -31 -33 -22 -47
-37 -43 -47 4 -12 3 -12 -8 -3 -11 9 -17 8 -27 -4 -13 -16 -10 -26 17 -63 l16
-24 -73 8 -73 7 23 -34 c13 -19 36 -50 52 -70 28 -36 39 -64 17 -42 -9 9 -19
6 -41 -10 -25 -18 -30 -19 -38 -7 -7 11 -3 21 16 36 22 18 23 22 9 34 -13 11
-18 10 -33 -4 -10 -9 -24 -16 -30 -16 -21 0 -13 27 14 45 24 15 25 19 11 32
-14 14 -19 12 -56 -18 -22 -19 -41 -36 -41 -40 0 -3 25 -35 55 -72 l56 -68 27
21 c15 11 45 35 66 54 l39 34 -21 30 c-12 16 -22 33 -22 36 0 6 29 3 103 -10
37 -7 35 7 -13 71 -38 51 -39 55 -21 65 11 5 22 10 25 10 3 0 22 -27 43 -59
35 -54 40 -58 56 -46 18 13 17 17 -22 74 -40 58 -41 61 -21 71 11 6 18 15 15
21 -4 5 -4 9 -1 9 2 0 19 -26 37 -57 50 -89 44 -87 102 -50 29 18 60 36 70 40
15 6 17 13 12 37 -8 34 2 37 44 15 24 -12 31 -12 46 -1 17 12 17 14 -8 31 -18
12 -27 26 -27 44 0 39 -26 71 -58 70 -15 0 -45 -9 -68 -21z m80 -35 c5 -11 1
-22 -10 -30 -24 -18 -31 -16 -45 8 -9 17 -8 23 2 30 22 14 46 10 53 -8z"/>
<path d="M3787 3407 c-8 -12 -28 -49 -44 -82 l-31 -60 84 -46 c65 -37 84 -43
88 -32 4 8 3 19 0 24 -9 15 45 101 59 93 36 -21 36 -25 -3 -87 -28 -44 -36
-64 -27 -69 22 -14 32 -7 65 47 18 30 37 55 41 55 4 0 16 -6 26 -14 19 -13 18
-15 -8 -55 -17 -26 -34 -41 -45 -39 -29 5 -24 -29 8 -52 25 -18 33 -20 46 -9
10 8 11 16 5 22 -13 13 46 97 64 91 7 -3 15 2 18 10 7 18 -51 62 -194 146 -40
24 -48 26 -53 13 -3 -8 -3 -19 0 -24 3 -5 -6 -30 -20 -54 l-26 -44 -35 21 -36
20 35 64 c33 60 34 64 17 74 -15 8 -22 5 -34 -13z"/>
<path d="M4096 3154 c-28 -29 -35 -79 -16 -115 14 -26 67 -51 90 -44 16 5 20
2 20 -17 0 -52 67 -101 108 -79 34 18 37 48 7 87 -19 25 -24 39 -17 46 13 13
31 2 42 -28 13 -32 40 -31 40 1 0 33 -42 75 -73 75 -26 0 -57 -28 -57 -51 0
-8 11 -30 25 -49 16 -22 22 -37 15 -44 -10 -10 -50 19 -50 37 0 21 -43 68 -58
62 -20 -7 -62 21 -62 43 0 10 7 28 16 40 19 27 62 27 75 0 5 -10 13 -26 17
-35 15 -30 32 -27 32 5 0 44 -9 61 -41 77 -43 23 -83 19 -113 -11z"/>
<path d="M1963 3104 c-24 -8 -75 -32 -115 -53 -64 -34 -84 -39 -158 -44 -434
-26 -629 -556 -319 -866 109 -109 244 -158 406 -147 259 18 466 151 746 481
180 211 295 314 431 382 242 122 469 102 619 -56 222 -233 127 -610 -180 -712
-56 -18 -81 -21 -167 -17 -108 5 -191 29 -343 99 -76 34 -94 34 -74 -4 20 -36
97 -88 182 -122 44 -18 82 -35 85 -38 11 -10 -57 -38 -106 -44 -144 -17 -263
94 -319 297 -12 41 -21 75 -21 76 0 1 80 1 178 0 156 -1 182 -3 216 -21 53
-27 96 -83 103 -133 4 -33 11 -43 33 -50 42 -15 54 -2 47 53 -9 61 -51 138
-93 170 -66 51 -105 58 -294 59 -119 1 -187 6 -214 15 -32 11 -40 11 -48 0
-13 -19 -3 -134 18 -205 54 -189 167 -308 316 -333 87 -15 139 -3 245 55 61
33 92 44 126 44 166 0 334 91 427 233 110 167 110 401 0 565 -100 149 -244
224 -432 224 -120 0 -221 -27 -338 -89 -151 -79 -266 -180 -449 -393 -141
-164 -224 -246 -316 -312 -152 -108 -250 -142 -415 -143 -109 0 -118 2 -183
32 -256 121 -337 434 -169 655 53 70 116 116 200 149 45 17 78 22 152 22 114
0 180 -16 335 -83 63 -28 116 -50 119 -50 19 0 0 33 -38 68 -49 45 -114 81
-194 107 -28 10 -50 21 -47 25 3 5 26 15 52 24 164 56 302 -36 368 -247 39
-122 52 -112 -148 -112 -146 1 -178 4 -209 19 -52 25 -97 79 -104 125 -8 52
-16 61 -50 64 -26 2 -29 -1 -32 -31 -4 -43 19 -112 53 -157 16 -21 54 -48 93
-67 l67 -33 160 3 c111 1 176 -2 213 -12 53 -13 54 -13 64 10 8 17 7 45 -1
100 -38 235 -150 385 -314 420 -79 17 -112 17 -164 -2z"/>
<path d="M633 3030 c-60 -24 -73 -108 -23 -152 39 -36 79 -36 119 -2 25 21 31
33 31 65 0 21 -4 39 -8 39 -16 0 -32 -24 -32 -47 0 -15 -9 -27 -25 -35 -53
-24 -100 46 -59 87 10 9 25 14 35 12 25 -7 48 21 28 34 -17 11 -37 11 -66 -1z"/>
<path d="M1701 1589 c-31 -67 -36 -85 -24 -87 8 -2 20 1 26 7 14 14 74 14 82
1 3 -5 15 -10 25 -10 18 0 16 7 -16 78 -19 42 -39 81 -44 86 -6 6 -25 -23 -49
-75z m59 -21 c0 -5 -7 -8 -15 -8 -17 0 -18 2 -9 25 5 13 8 14 15 3 5 -7 9 -16
9 -20z"/>
<path d="M1852 1654 c-16 -11 -22 -24 -20 -42 2 -22 11 -30 46 -40 23 -8 42
-17 42 -22 0 -13 -33 -21 -44 -10 -17 17 -48 12 -44 -7 7 -40 97 -42 118 -3
16 30 -4 58 -45 66 -21 4 -35 12 -35 21 0 12 8 13 40 8 45 -8 53 5 18 29 -28
20 -48 20 -76 0z"/>
<path d="M1998 1658 c-38 -31 -21 -84 30 -90 16 -2 27 -9 27 -18 0 -15 -8 -16
-59 -4 -26 6 -27 5 -17 -15 14 -26 55 -37 90 -25 21 8 26 16 26 44 0 31 -3 35
-39 45 -60 17 -61 40 -2 31 45 -7 47 -6 37 12 -17 33 -64 42 -93 20z"/>
<path d="M2165 1658 c-74 -44 -49 -158 34 -158 101 0 116 147 16 165 -17 3
-39 0 -50 -7z m61 -36 c34 -23 20 -82 -19 -82 -29 0 -47 18 -47 45 0 36 37 57
66 37z"/>
<path d="M2350 1657 c-83 -42 -42 -168 50 -153 32 5 60 28 60 48 0 12 -38 10
-45 -2 -11 -17 -54 -11 -65 9 -16 30 4 71 34 71 14 0 28 -4 31 -10 7 -12 45
-13 45 -2 0 15 -33 40 -60 46 -14 4 -36 0 -50 -7z"/>
<path d="M2480 1650 c0 -11 5 -20 10 -20 14 0 13 -87 -2 -92 -6 -2 -12 -12
-14 -21 -2 -14 7 -17 62 -17 36 0 64 4 64 10 0 6 18 10 40 10 22 0 40 -4 40
-10 0 -5 9 -10 20 -10 11 0 20 2 20 5 0 14 -74 165 -80 165 -4 0 -23 -33 -41
-74 -29 -65 -35 -72 -51 -62 -13 8 -18 23 -18 53 0 24 5 43 10 43 6 0 10 9 10
20 0 16 -7 20 -35 20 -28 0 -35 -4 -35 -20z m173 -70 c4 -15 0 -20 -13 -20
-13 0 -17 5 -13 20 3 11 9 20 13 20 4 0 10 -9 13 -20z"/>
<path d="M2720 1650 c0 -13 7 -20 20 -20 18 0 20 -7 20 -65 0 -58 2 -65 20
-65 18 0 20 7 20 64 0 58 2 64 23 68 12 2 28 3 35 0 17 -5 15 -80 -3 -99 -22
-21 -9 -33 36 -33 28 0 39 4 39 15 0 9 -7 18 -15 21 -17 7 -22 94 -5 94 6 0
10 9 10 19 0 18 -8 20 -100 20 -93 1 -100 -1 -100 -19z"/>
<path d="M2985 1658 c-74 -44 -49 -158 34 -158 101 0 115 147 16 165 -17 3
-39 0 -50 -7z m69 -44 c19 -18 20 -28 6 -55 -20 -37 -80 -18 -80 26 0 42 44
59 74 29z"/>
<path d="M3130 1586 c0 -79 2 -86 20 -86 17 0 20 7 20 42 l0 42 43 -42 c23
-23 46 -42 50 -42 4 0 7 38 7 85 0 77 -2 85 -19 85 -16 0 -20 -8 -23 -42 l-3
-43 -47 44 -48 44 0 -87z"/>
</g>
</svg>
